<svg xmlns="http://www.w3.org/2000/svg" xmlns:xlink="http://www.w3.org/1999/xlink" viewBox="0 0 335.67 321.31">
  <defs>
    <style>
      .a, .ac, .ad, .ao, .ba, .bb, .bc, .bn, .cg, .ch {
        fill: none;
      }

      .b {
        isolation: isolate;
      }

      .c {
        clip-path: url(#a);
      }

      .bu, .d {
        opacity: 0.2;
      }

      .af, .d {
        mix-blend-mode: multiply;
      }

      .e {
        clip-path: url(#b);
      }

      .f {
        fill: #b298fa;
      }

      .g {
        clip-path: url(#c);
      }

      .h {
        fill: #8888e9;
      }

      .i {
        fill: #b0affd;
      }

      .j {
        opacity: 0.7;
      }

      .k {
        clip-path: url(#d);
      }

      .l {
        fill: #9797ef;
      }

      .m {
        clip-path: url(#e);
      }

      .n {
        clip-path: url(#f);
      }

      .o {
        clip-path: url(#g);
      }

      .p {
        clip-path: url(#h);
      }

      .q {
        clip-path: url(#i);
      }

      .r {
        clip-path: url(#j);
      }

      .s {
        clip-path: url(#k);
      }

      .t {
        clip-path: url(#l);
      }

      .u {
        clip-path: url(#m);
      }

      .v {
        clip-path: url(#n);
      }

      .w {
        clip-path: url(#o);
      }

      .x {
        fill: #7070d6;
      }

      .y {
        fill: #ffcec7;
      }

      .z {
        fill: #6469d3;
      }

      .aa {
        fill: #5c37d4;
      }

      .ab {
        fill: #ff9a15;
      }

      .ac, .ad, .ba, .bb, .cg, .ch {
        stroke: #42287c;
      }

      .ac, .ad, .ao, .ba, .bb, .bc, .bn, .cg, .ch {
        stroke-linecap: round;
        stroke-linejoin: round;
      }

      .ac {
        stroke-width: 0.51px;
      }

      .ad {
        stroke-width: 1.02px;
      }

      .ae {
        fill: #212b54;
      }

      .af, .bo, .cp {
        opacity: 0.5;
      }

      .ag {
        clip-path: url(#p);
      }

      .ah {
        fill: #8a78b5;
      }

      .ai {
        clip-path: url(#q);
      }

      .aj {
        clip-path: url(#r);
      }

      .ak {
        clip-path: url(#s);
      }

      .al {
        clip-path: url(#t);
      }

      .am {
        font-size: 5.87px;
        font-family: OpenSans-SemiboldItalic, Open Sans;
        font-weight: 700;
        font-style: italic;
      }

      .am, .ar {
        fill: #fff;
      }

      .an {
        fill: #d3bbf9;
      }

      .ao {
        stroke: #d3bbf9;
        stroke-width: 1.09px;
      }

      .ap {
        clip-path: url(#v);
      }

      .aq {
        fill: #5146af;
      }

      .as {
        fill: #e0d1c2;
      }

      .at {
        fill: #5923ce;
      }

      .au {
        clip-path: url(#w);
      }

      .av {
        fill: #481bae;
      }

      .aw {
        fill: #2c27ff;
      }

      .ax {
        fill: #4a21ce;
      }

      .ay {
        fill: #170b4e;
      }

      .az {
        fill: #3e2477;
      }

      .ba {
        stroke-width: 0.27px;
      }

      .bb {
        stroke-width: 0.53px;
      }

      .bc {
        stroke: #b3b3f4;
      }

      .bd {
        fill: #7762ef;
      }

      .be {
        fill: #fefefe;
      }

      .bf {
        opacity: 0.3;
      }

      .bg {
        clip-path: url(#x);
      }

      .bh {
        clip-path: url(#y);
      }

      .bi {
        clip-path: url(#z);
      }

      .bj {
        fill: #6a4ce5;
      }

      .bk {
        fill: #19223f;
      }

      .bl {
        fill: #f2f2f2;
      }

      .bm {
        fill: #d4b8ff;
      }

      .bn {
        stroke: #d4b8ff;
      }

      .bo {
        mix-blend-mode: screen;
      }

      .bp {
        clip-path: url(#ab);
      }

      .bq {
        clip-path: url(#ac);
      }

      .br {
        clip-path: url(#ad);
      }

      .bs {
        clip-path: url(#ae);
      }

      .bt {
        clip-path: url(#af);
      }

      .bv {
        clip-path: url(#ag);
      }

      .bw {
        fill: #251354;
      }

      .bx {
        fill: #5045af;
      }

      .by {
        fill: #f4afac;
      }

      .bz {
        fill: #efa0a0;
      }

      .ca {
        opacity: 0.6;
      }

      .cb {
        clip-path: url(#ah);
      }

      .cc {
        fill: #3434a5;
      }

      .cd {
        fill: #5058bc;
      }

      .ce {
        clip-path: url(#ai);
      }

      .cf {
        fill: #171514;
      }

      .cg {
        stroke-width: 0.57px;
      }

      .ch {
        stroke-width: 0.28px;
      }

      .ci {
        clip-path: url(#aj);
      }

      .cj {
        clip-path: url(#ak);
      }

      .ck {
        fill: #db4f7a;
      }

      .cl {
        fill: #d63a67;
      }

      .cm {
        fill: #db527f;
      }

      .cn {
        fill: #35a6b4;
      }

      .co {
        fill: #642bfb;
      }

      .cq {
        clip-path: url(#al);
      }

      .cr {
        clip-path: url(#am);
      }

      .cs {
        fill: #151412;
      }

      .ct {
        fill: #2c859b;
      }

      .animate {
        animation: bounce 3s infinite;
        -webkit-animation: bounce 3s infinite;
        -moz-animation: bounce 3s infinite;
        -o-animation: bounce 3s infinite;
         transition:opacity 0.5s ease;
         opacity:0;
         transform: translateY(20px);
         -webkit-transform: translateY(20px);
         -ms-transform: translateY(20px);
      }
      .animate-3 {
        animation: bounce 2.5s infinite;
      -webkit-animation: bounce 2.5s infinite;
      -moz-animation: bounce 2.5s infinite;
      -o-animation: bounce 2.5s infinite;
      }
      .animate-4 {
        animation: bounce 3.5s infinite;
      -webkit-animation: bounce 3.5s infinite;
      -moz-animation: bounce 3.5s infinite;
      -o-animation: bounce 3.5s infinite;
      }
      @-webkit-keyframes bounce {
        0%, {-webkit-transform: translateY(20px); opacity:0;}
        50% {opacity:0.8}
        100% {-webkit-transform: translateY(-30px); opacity:0}
      }
      @keyframes bounce {
        0%, {transform: translateY(20px); opacity:0;}
        50% {opacity:0.8}
        100% {transform: translateY(-30px); opacity:0}
      } 
    </style>
    <clipPath id="a" transform="translate(-316.89 -105.39)">
      <rect class="a" width="750" height="500"/>
    </clipPath>
    <clipPath id="b" transform="translate(-316.89 -105.39)">
      <rect class="a" x="434.07" y="371.57" width="200.88" height="7.67"/>
    </clipPath>
    <clipPath id="c" transform="translate(-316.89 -105.39)">
      <rect class="a" x="370.75" y="363.69" width="83.14" height="6.72"/>
    </clipPath>
    <clipPath id="d" transform="translate(-316.89 -105.39)">
      <rect class="a" x="428.15" y="245" width="18.44" height="91.65"/>
    </clipPath>
    <clipPath id="e" transform="translate(-316.89 -105.39)">
      <rect class="a" x="422.14" y="258.58" width="16.08" height="9.38"/>
    </clipPath>
    <clipPath id="f" transform="translate(-316.89 -105.39)">
      <rect class="a" x="442.22" y="274.87" width="20.39" height="12.46"/>
    </clipPath>
    <clipPath id="g" transform="translate(-316.89 -105.39)">
      <rect class="a" x="412.8" y="270.79" width="29.21" height="12.28"/>
    </clipPath>
    <clipPath id="h" transform="translate(-316.89 -105.39)">
      <rect class="a" x="420.71" y="305.75" width="25.46" height="10.88"/>
    </clipPath>
    <clipPath id="i" transform="translate(-316.89 -105.39)">
      <rect class="a" x="445.77" y="302.47" width="20.81" height="18.6"/>
    </clipPath>
    <clipPath id="j" transform="translate(-316.89 -105.39)">
      <rect class="a" x="547.84" y="245" width="18.44" height="91.65"/>
    </clipPath>
    <clipPath id="k" transform="translate(-316.89 -105.39)">
      <rect class="a" x="556.21" y="258.58" width="16.08" height="9.38"/>
    </clipPath>
    <clipPath id="l" transform="translate(-316.89 -105.39)">
      <rect class="a" x="531.82" y="274.87" width="20.39" height="12.46"/>
    </clipPath>
    <clipPath id="m" transform="translate(-316.89 -105.39)">
      <rect class="a" x="552.42" y="270.79" width="29.21" height="12.28"/>
    </clipPath>
    <clipPath id="n" transform="translate(-316.89 -105.39)">
      <rect class="a" x="548.26" y="305.75" width="25.46" height="10.88"/>
    </clipPath>
    <clipPath id="o" transform="translate(-316.89 -105.39)">
      <rect class="a" x="527.85" y="302.47" width="20.81" height="18.6"/>
    </clipPath>
    <clipPath id="p" transform="translate(-316.89 -105.39)">
      <rect class="a" x="529.52" y="366.3" width="46.92" height="0.97"/>
    </clipPath>
    <clipPath id="q" transform="translate(-316.89 -105.39)">
      <rect class="a" x="529.52" y="363" width="46.92" height="0.97"/>
    </clipPath>
    <clipPath id="r" transform="translate(-316.89 -105.39)">
      <rect class="a" x="554.33" y="335.91" width="46.92" height="0.97"/>
    </clipPath>
    <clipPath id="s" transform="translate(-316.89 -105.39)">
      <rect class="a" x="554.33" y="338.66" width="46.92" height="0.97"/>
    </clipPath>
    <clipPath id="t" transform="translate(-316.89 -105.39)">
      <rect class="a" x="586.18" y="357.45" width="16.4" height="9.82"/>
    </clipPath>
    <clipPath id="v" transform="translate(-316.89 -105.39)">
      <rect class="a" x="325.54" y="387.97" width="113.24" height="4.42"/>
    </clipPath>
    <clipPath id="w" transform="translate(-316.89 -105.39)">
      <rect class="a" x="399.76" y="317.75" width="11.36" height="68.07"/>
    </clipPath>
    <clipPath id="x" transform="translate(-316.89 -105.39)">
      <rect class="a" x="560.72" y="152.78" width="19.68" height="20.06"/>
    </clipPath>
    <clipPath id="y" transform="translate(-316.89 -105.39)">
      <rect class="a" x="371.9" y="184.22" width="14.27" height="14.55"/>
    </clipPath>
    <clipPath id="z" transform="translate(-316.89 -105.39)">
      <path class="a" d="M456.68,156.33A15.64,15.64,0,0,0,441,172V360.12a15.63,15.63,0,0,0,15.63,15.63h77.18a15.64,15.64,0,0,0,15.64-15.63v-2.6h0V172a15.64,15.64,0,0,0-15.63-15.63Z"/>
    </clipPath>
    <clipPath id="ab" transform="translate(-316.89 -105.39)">
      <rect class="a" x="443.44" y="174.56" width="68.04" height="104.18"/>
    </clipPath>
    <clipPath id="ac" transform="translate(-316.89 -105.39)">
      <rect class="a" x="443.44" y="174.56" width="96.69" height="148.05"/>
    </clipPath>
    <clipPath id="ad" transform="translate(-316.89 -105.39)">
      <rect class="a" x="466.33" y="235.13" width="79.93" height="122.39"/>
    </clipPath>
    <clipPath id="ae" transform="translate(-316.89 -105.39)">
      <rect class="a" x="414.03" y="134.26" width="20" height="20.39"/>
    </clipPath>
    <clipPath id="af" transform="translate(-316.89 -105.39)">
      <rect class="a" x="613.15" y="201.48" width="13.97" height="14.24"/>
    </clipPath>
    <clipPath id="ag" transform="translate(-316.89 -105.39)">
      <rect class="a" x="540.11" y="325.48" width="42.4" height="48.56"/>
    </clipPath>
    <clipPath id="ah" transform="translate(-316.89 -105.39)">
      <rect class="a" x="558.88" y="312.07" width="23.8" height="19.3"/>
    </clipPath>
    <clipPath id="ai" transform="translate(-316.89 -105.39)">
      <rect class="a" x="568.96" y="318.67" width="3.03" height="4.11"/>
    </clipPath>
    <clipPath id="aj" transform="translate(-316.89 -105.39)">
      <rect class="a" x="479.83" y="209.6" width="12.85" height="13.09"/>
    </clipPath>
    <clipPath id="ak" transform="translate(-316.89 -105.39)">
      <rect class="a" x="455.28" y="261.17" width="3.8" height="11.95"/>
    </clipPath>
    <clipPath id="al" transform="translate(-316.89 -105.39)">
      <rect class="a" x="459.21" y="257.81" width="14.63" height="15.65"/>
    </clipPath>
    <clipPath id="am" transform="translate(-316.89 -105.39)">
      <rect class="a" x="473.17" y="258.45" width="3.52" height="8.68"/>
    </clipPath>
  </defs>
  <title>icon-2</title>
  <g class="b">
    <g>
      <g class="c">
        <g class="d">
          <g class="e">
            <path class="f" d="M570.48,371.57c-19.87,0-36.92.65-44.29,1.58-9.29-.33-20.31-.51-32.13-.51-33.13,0-60,1.48-60,3.3s26.86,3.31,60,3.31c29.05,0,53.28-1.14,58.8-2.65,5.46.12,11.4.07,17.62.18,30.77.55,65.77.64,64.44-3.28-.46-1.36-37.83-1.92-64.44-1.92" transform="translate(-316.89 -105.39)"/>
          </g>
        </g>
        <g class="d">
          <g class="g">
            <path class="f" d="M453.89,367c0,1.86-18.61,3.36-41.57,3.36s-41.57-1.5-41.57-3.36,18.61-3.36,41.57-3.36,41.57,1.5,41.57,3.36" transform="translate(-316.89 -105.39)"/>
          </g>
        </g>
        <path class="h" d="M550.64,282.35a1,1,0,0,1,.25.4,3.2,3.2,0,0,0-.38-1,73.83,73.83,0,0,1-1.44-8.43c-.06-.58-.11-1.15-.16-1.73.88-1,3.37-2.77,3.94-3.39a16.88,16.88,0,0,0,3.36-4.5c.27-.68.71-2.73-.31-3.07s-2.76,2.64-3.15,3.39a51,51,0,0,1-2.49,5,16.19,16.19,0,0,0-1.39,2.16,64.5,64.5,0,0,1-.13-7.71c.84-1,3.41-2.81,4-3.45a16.9,16.9,0,0,0,3.36-4.5c.27-.68.71-2.73-.31-3.07s-2.76,2.64-3.15,3.39a51,51,0,0,1-2.49,5,16.68,16.68,0,0,0-1.37,2.14,57.39,57.39,0,0,1,1-8.08,53.52,53.52,0,0,1,1.35-5.44c1.33-.66,3.22-1.37,3.78-1.73a16.88,16.88,0,0,0,4.42-3.46c.44-.58,1.4-2.45.51-3s-3.36,1.82-3.93,2.45a50.84,50.84,0,0,1-3.72,4.2c-.25.22-.51.43-.77.65a54.73,54.73,0,0,1,2.81-7c.6-.18,1.18-.47,1.77-.71a43.45,43.45,0,0,1,4.62-1.25c.7-.2,3.5-1,3.36-2.07s-1.91-.88-2.52-.77a14.45,14.45,0,0,0-4.33,2.07c-.46.28-1.61,1.34-2.58,2.1.53-1.06,1.08-2.11,1.68-3.13a53.55,53.55,0,0,1,3.13-4.7,11.67,11.67,0,0,0,2.21-.83,43.48,43.48,0,0,1,4.63-1.25c.69-.2,3.5-1,3.36-2.07s-1.91-.88-2.52-.77a14.43,14.43,0,0,0-4.33,2.07c-.53.32-2,1.7-3,2.44a50,50,0,0,1,5-5.66,17,17,0,0,0,1.87-.79,43.42,43.42,0,0,1,4.6-1.34c.69-.21,3.48-1.11,3.32-2.14s-1.92-.85-2.54-.72a14.44,14.44,0,0,0-4.29,2.15,7.21,7.21,0,0,0-.73.58q-1.59,1.12-3.07,2.39l-.12,0h.11a44.24,44.24,0,0,0-3.82,3.7c.22-.59.33-1.24.5-1.86a43.49,43.49,0,0,1,1.8-4.44c.26-.67,1.29-3.42.38-3.93s-1.86,1-2.14,1.54a14.41,14.41,0,0,0-1,4.7c-.08.71.21,3.23.07,4.4a44.52,44.52,0,0,0-3.12,3.9,12.36,12.36,0,0,0,.29-2.27,43.62,43.62,0,0,1,1.1-4.67c.15-.7.75-3.58-.23-3.94s-1.68,1.26-1.88,1.85a14.42,14.42,0,0,0-.24,4.79c0,.75.8,3.47.75,4.54-.39.55-.77,1.12-1.13,1.69a49.1,49.1,0,0,0-3.9,7.48c-.13-.44-.29-.88-.42-1.31a43.47,43.47,0,0,1-.78-4.73c-.13-.71-.69-3.59-1.73-3.55s-1.07,1.81-1,2.43A14.41,14.41,0,0,0,548.9,242c.26.55,1.45,2.1,2.09,3.2a51.43,51.43,0,0,0-2.45,7.8c-.12-.53-.25-1.06-.33-1.55-.2-1.25-.35-2.5-.42-3.76a21.45,21.45,0,0,1,.42-5.89,1,1,0,0,0-1.69-1l-.08.08c-1.11,1.21-1,3.06-.82,4.69.15,1.24.9,8,2.55,9.13a54.93,54.93,0,0,0-.95,9.33c-.42-1.49-.47-3.05-.75-4.58-.13-.71-.69-3.59-1.73-3.55s-1.07,1.81-1,2.43a14.44,14.44,0,0,0,1.63,4.51c.23.49,1.21,1.79,1.88,2.84a57.67,57.67,0,0,0,.57,7.45c-.17-.26-.34-.52-.5-.78a43.41,43.41,0,0,1-1.94-4.38c-.3-.66-1.56-3.3-2.56-3s-.58,2-.38,2.61a14.42,14.42,0,0,0,2.7,4c.39.47,1.93,1.67,2.83,2.58q.44,2.82,1.15,5.58c-.76-1.2-1.3-2.53-2-3.77-.35-.63-1.82-3.17-2.79-2.8s-.42,2.06-.17,2.63a14.41,14.41,0,0,0,3,3.74c.34.35,1.47,1.12,2.4,1.85,1,3.44-.47,8,1.09,11.18-1.09-3,.73-7.17,0-10.22" transform="translate(-316.89 -105.39)"/>
        <path class="h" d="M438.48,269a1,1,0,0,0-.28.38,3.23,3.23,0,0,1,.45-.95,74.31,74.31,0,0,0,2-8.31c.1-.57.19-1.14.28-1.71-.81-1.09-3.17-3-3.69-3.66a16.89,16.89,0,0,1-3-4.72c-.22-.7-.51-2.77.53-3s2.57,2.83,2.9,3.6a51,51,0,0,0,2.13,5.19,16.3,16.3,0,0,1,1.23,2.26,64.54,64.54,0,0,0,.67-7.68c-.76-1.08-3.2-3-3.73-3.72a16.89,16.89,0,0,1-3-4.72c-.22-.7-.51-2.77.53-3s2.57,2.83,2.9,3.6a51,51,0,0,0,2.13,5.19,16.55,16.55,0,0,1,1.22,2.23,57.37,57.37,0,0,0-.39-8.13,53.68,53.68,0,0,0-1-5.52c-1.28-.75-3.12-1.6-3.65-2a16.89,16.89,0,0,1-4.17-3.77c-.4-.61-1.22-2.54-.29-3.07s3.22,2.06,3.74,2.72a50.88,50.88,0,0,0,3.42,4.46c.23.24.48.47.73.7a54.55,54.55,0,0,0-2.3-7.18c-.58-.23-1.14-.56-1.71-.84a43.59,43.59,0,0,0-4.53-1.58c-.68-.25-3.42-1.29-3.21-2.31s2-.74,2.57-.59a14.42,14.42,0,0,1,4.17,2.37c.44.31,1.51,1.45,2.43,2.28-.45-1.09-.93-2.18-1.46-3.25a53.65,53.65,0,0,0-2.79-4.91,11.68,11.68,0,0,1-2.14-1,43.15,43.15,0,0,0-4.53-1.58c-.68-.25-3.42-1.29-3.21-2.31s2-.75,2.57-.59a14.44,14.44,0,0,1,4.17,2.37c.51.36,1.87,1.84,2.86,2.65a50.14,50.14,0,0,0-4.56-6,16.84,16.84,0,0,1-1.81-.92,43.39,43.39,0,0,0-4.5-1.66c-.67-.26-3.39-1.35-3.16-2.37s2-.71,2.58-.54a14.39,14.39,0,0,1,4.12,2.45,7.51,7.51,0,0,1,.68.63q1.51,1.23,2.9,2.6l.12,0-.11,0a43.9,43.9,0,0,1,3.55,4c-.18-.61-.24-1.26-.36-1.89a43.58,43.58,0,0,0-1.48-4.56c-.21-.69-1-3.5-.1-3.95s1.78,1.12,2,1.69a14.43,14.43,0,0,1,.63,4.75c0,.71-.44,3.21-.38,4.38a44.67,44.67,0,0,1,2.84,4.11,12.33,12.33,0,0,1-.13-2.29,43.57,43.57,0,0,0-.76-4.73c-.1-.71-.49-3.62.5-3.92s1.59,1.38,1.74,2a14.44,14.44,0,0,1-.1,4.79c-.09.75-1,3.4-1.07,4.47.35.58.69,1.17,1,1.77a48.92,48.92,0,0,1,3.36,7.74c.16-.43.35-.86.51-1.28a43.64,43.64,0,0,0,1.12-4.66c.18-.7.94-3.53,2-3.42s.94,1.88.84,2.5a14.44,14.44,0,0,1-1.94,4.38c-.3.53-1.59,2-2.31,3a51.41,51.41,0,0,1,1.89,8c.16-.52.33-1,.44-1.52.28-1.23.52-2.47.68-3.72a21.45,21.45,0,0,0,0-5.9,1,1,0,0,1,1.76-.84l.08.09c1,1.28.8,3.12.49,4.73-.23,1.23-1.46,7.89-3.19,8.93a55.16,55.16,0,0,1,.29,9.37c.52-1.46.69-3,1.07-4.51.18-.7.94-3.53,2-3.42s.94,1.88.84,2.5a14.46,14.46,0,0,1-1.94,4.38c-.27.48-1.34,1.7-2.07,2.7a57.63,57.63,0,0,1-1.1,7.39c.19-.25.38-.5.55-.75a43.34,43.34,0,0,0,2.25-4.23c.35-.63,1.79-3.18,2.77-2.82s.44,2.06.19,2.63a14.44,14.44,0,0,1-3,3.76c-.42.44-2,1.53-3,2.37q-.64,2.78-1.54,5.48c.84-1.14,1.48-2.43,2.26-3.61.4-.6,2-3,3-2.59s.28,2.08,0,2.64a14.44,14.44,0,0,1-3.26,3.51c-.37.33-1.55,1-2.53,1.67-1.23,3.36-.1,8-1.88,11.08,1.3-2.87-.22-7.21.72-10.2" transform="translate(-316.89 -105.39)"/>
        <path class="i" d="M444.21,335c-.06,0,1.32-5.19-5.08-12.15-6.45-7.3-23.42-10.56-24.26-16.37-.85-6.21,9.36-2.38,14.93-5.47s7.65-4.78,1.62-7.56-9.7-4.11-8.43-9.33-9.7-5.21-14-10.31c-4.43-5.14-.26-9.62,9.81-6.91,9.84,2.92,10.6,1.36,8.09-.87s-10.56-6.92-6.21-8.74,9.41,1.92,7.28-2.17-8.47-8.25-4.19-11.15,12.95-.51,15.58,10.44,3.5,14,8.06,16.22,10.07-1.78,15.34,1.69,2.81,8.75-1.48,11.58-12,8.66-9.19,12.74,7.92.25,13.12.58c5.77.36,10.93,6.61,3.91,12.95-7.2,6.18-16.94,10.08-21.25,27.32q-1.81-1.28-3.67-2.48" transform="translate(-316.89 -105.39)"/>
        <g class="j">
          <g class="k">
            <path class="l" d="M446.22,336.64a.31.31,0,0,1-.27-.31c.84-63-17.57-90.59-17.75-90.86a.3.3,0,0,1,.5-.35c.19.27,18.7,28,17.86,91.21a.31.31,0,0,1-.31.3h0" transform="translate(-316.89 -105.39)"/>
          </g>
        </g>
        <g class="j">
          <g class="m">
            <path class="l" d="M437.88,268a.3.3,0,0,1-.19-.09,33.79,33.79,0,0,0-15.31-8.68.31.31,0,0,1-.23-.36.3.3,0,0,1,.36-.23,34.46,34.46,0,0,1,15.62,8.86.3.3,0,0,1-.25.51" transform="translate(-316.89 -105.39)"/>
          </g>
        </g>
        <g class="j">
          <g class="n">
            <path class="l" d="M442.49,287.32a.31.31,0,0,1-.15-.54,120.84,120.84,0,0,1,19.83-11.88.31.31,0,1,1,.26.55,120.42,120.42,0,0,0-19.72,11.81.3.3,0,0,1-.22.06" transform="translate(-316.89 -105.39)"/>
          </g>
        </g>
        <g class="j">
          <g class="o">
            <path class="l" d="M441.67,283.07a.31.31,0,0,1-.13,0c-12.82-8.29-28.34-11.59-28.5-11.62a.31.31,0,0,1-.24-.36.29.29,0,0,1,.36-.24c.16,0,15.79,3.36,28.7,11.71a.31.31,0,0,1-.2.56" transform="translate(-316.89 -105.39)"/>
          </g>
        </g>
        <g class="j">
          <g class="p">
            <path class="l" d="M445.83,316.63a.29.29,0,0,1-.15-.06c-8.66-6.33-24.58-10.18-24.74-10.22a.31.31,0,0,1-.23-.37.3.3,0,0,1,.37-.23c.16,0,16.21,3.91,25,10.32a.3.3,0,0,1-.21.55" transform="translate(-316.89 -105.39)"/>
          </g>
        </g>
        <g class="j">
          <g class="q">
            <path class="l" d="M446,321.06a.29.29,0,0,1-.13,0,.3.3,0,0,1-.1-.42c6.79-11,20.18-18,20.32-18.1a.3.3,0,1,1,.28.54c-.13.07-13.38,7-20.08,17.88a.3.3,0,0,1-.29.14" transform="translate(-316.89 -105.39)"/>
          </g>
        </g>
        <path class="i" d="M550.22,335c.06,0-1.32-5.19,5.08-12.15,6.46-7.3,23.42-10.56,24.26-16.37.85-6.21-9.37-2.38-14.93-5.47s-7.64-4.78-1.62-7.56,9.7-4.11,8.43-9.33,9.7-5.21,14-10.31c4.44-5.14.26-9.62-9.81-6.91-9.84,2.92-10.6,1.36-8.09-.87s10.56-6.92,6.21-8.74-9.41,1.92-7.28-2.17,8.47-8.25,4.19-11.15-12.95-.51-15.58,10.44-3.5,14-8.06,16.22-10.08-1.78-15.35,1.69-2.81,8.75,1.49,11.58,12,8.66,9.19,12.74-7.93.25-13.12.58c-5.77.36-10.93,6.61-3.91,12.95,7.2,6.18,16.94,10.08,21.25,27.32q1.81-1.28,3.67-2.48" transform="translate(-316.89 -105.39)"/>
        <g class="j">
          <g class="r">
            <path class="l" d="M548.21,336.64a.31.31,0,0,0,.27-.31c-.84-63,17.57-90.59,17.75-90.86a.3.3,0,1,0-.5-.35c-.19.27-18.71,28-17.86,91.21a.31.31,0,0,0,.31.3h0" transform="translate(-316.89 -105.39)"/>
          </g>
        </g>
        <g class="j">
          <g class="s">
            <path class="l" d="M556.55,268a.3.3,0,0,0,.19-.09,33.79,33.79,0,0,1,15.31-8.68.31.31,0,0,0,.23-.36.3.3,0,0,0-.36-.23,34.47,34.47,0,0,0-15.62,8.86.3.3,0,0,0,.25.51" transform="translate(-316.89 -105.39)"/>
          </g>
        </g>
        <g class="j">
          <g class="t">
            <path class="l" d="M551.94,287.32a.31.31,0,0,0,.15-.54,120.84,120.84,0,0,0-19.83-11.88.31.31,0,1,0-.26.55,120.38,120.38,0,0,1,19.72,11.81.3.3,0,0,0,.22.06" transform="translate(-316.89 -105.39)"/>
          </g>
        </g>
        <g class="j">
          <g class="u">
            <path class="l" d="M552.76,283.07a.3.3,0,0,0,.13,0c12.82-8.29,28.34-11.59,28.5-11.62a.31.31,0,0,0,.24-.36.29.29,0,0,0-.36-.24c-.16,0-15.79,3.36-28.7,11.71a.3.3,0,0,0,.2.56" transform="translate(-316.89 -105.39)"/>
          </g>
        </g>
        <g class="j">
          <g class="v">
            <path class="l" d="M548.6,316.63a.29.29,0,0,0,.15-.06c8.66-6.33,24.58-10.18,24.74-10.22a.31.31,0,1,0-.14-.59c-.16,0-16.2,3.91-25,10.32a.3.3,0,0,0,.21.55" transform="translate(-316.89 -105.39)"/>
          </g>
        </g>
        <g class="j">
          <g class="w">
            <path class="l" d="M548.39,321.06a.29.29,0,0,0,.13,0,.3.3,0,0,0,.1-.42c-6.79-11-20.18-18-20.32-18.1a.3.3,0,0,0-.28.54c.13.07,13.38,7,20.08,17.88a.31.31,0,0,0,.29.14" transform="translate(-316.89 -105.39)"/>
          </g>
        </g>
        <path class="x" d="M418,338.91s.45-18.23-13.91-19.91-9.18,19.06-3,25.85c0,0-8-9.39-13.29-3s9.6,13.61,9.6,13.61-11.94-4-15.25-1.3c-4.27,3.54,3.82,8.68,3.82,8.68s-12.91-5.15-10.21,4l61.4-.17Z" transform="translate(-316.89 -105.39)"/>
        <path class="h" d="M610.08,357.83s-.25-9.94,7.58-10.85,3.36,12,0,15.69c0,0,6-6.72,8.9-3.26s-5.24,7.42-5.24,7.42,6.51-2.21,8.31-.71C632,368,627.16,371,627.16,371s7.44-3,6,2H602.58Z" transform="translate(-316.89 -105.39)"/>
        <path class="y" d="M575.72,298.62s.73,11.27,3.74,12.2,11.24-8.23,11.24-8.23l-2.5-2.18-6.92,5.91-.75-7.49Z" transform="translate(-316.89 -105.39)"/>
        <polygon class="z" points="110.4 209.16 107.01 256.74 152.39 256.74 149.27 209.07 110.4 209.16"/>
        <path class="aa" d="M436.3,318.73h0a1.46,1.46,0,0,1,1.55-1.32h0a1.34,1.34,0,1,1,0,2.63h0a1.46,1.46,0,0,1-1.56-1.31m1.56-.82a.84.84,0,1,0,0,1.63h0a.84.84,0,1,0,0-1.63Zm-1.31.82h0Z" transform="translate(-316.89 -105.39)"/>
        <path class="aa" d="M451.77,318.7h0a1.2,1.2,0,0,1,.36-.85,1.67,1.67,0,0,1,1.19-.47h0a1.45,1.45,0,0,1,1.56,1.31,1.22,1.22,0,0,1-.47.95,1.71,1.71,0,0,1-1.08.37h0a1.46,1.46,0,0,1-1.56-1.31m1.55-.82a1.18,1.18,0,0,0-.83.32.69.69,0,0,0-.22.49,1,1,0,0,0,1.06.81h0a1.21,1.21,0,0,0,.76-.26.73.73,0,0,0,.29-.56,1,1,0,0,0-1.05-.81Z" transform="translate(-316.89 -105.39)"/>
        <path class="aa" d="M445.13,328.3h.44a8.35,8.35,0,0,0,6.44-2.72c2.37-2.83,1.83-6.78,1.81-6.95a.5.5,0,0,0-1,.14s.49,3.68-1.59,6.17a7.4,7.4,0,0,1-5.7,2.36c-2.46.07-4.3-.57-5.52-1.93-2.22-2.47-1.67-6.52-1.67-6.56a.5.5,0,0,0-1-.14c0,.18-.62,4.55,1.91,7.37a7.49,7.49,0,0,0,5.86,2.27" transform="translate(-316.89 -105.39)"/>
        <polygon class="ab" points="97.34 226.04 91.91 261.42 141.19 261.31 136.2 225.95 97.34 226.04"/>
        <ellipse class="ac" cx="424.79" cy="335.7" rx="1.31" ry="1.09" transform="translate(-317.65 -104.43) rotate(-0.13)"/>
        <ellipse class="ac" cx="440.26" cy="335.67" rx="1.31" ry="1.09" transform="translate(-317.64 -104.41) rotate(-0.13)"/>
        <path class="ad" d="M440.26,335.67s1.27,9-7.77,9.29-7.7-9.26-7.7-9.26" transform="translate(-316.89 -105.39)"/>
        <path class="ae" d="M612.24,331.75V368a6.14,6.14,0,0,1-6.14,6.14H532.66a6.14,6.14,0,0,1-6.14-6.14V331.75a6.14,6.14,0,0,1,6.14-6.14H606.1a6.14,6.14,0,0,1,6.14,6.14" transform="translate(-316.89 -105.39)"/>
        <g class="af">
          <g class="ag">
            <rect class="ah" x="212.63" y="260.91" width="46.92" height="0.97"/>
          </g>
        </g>
        <g class="af">
          <g class="ai">
            <rect class="ah" x="212.63" y="257.61" width="46.92" height="0.97"/>
          </g>
        </g>
        <g class="af">
          <g class="aj">
            <rect class="ah" x="237.44" y="230.52" width="46.92" height="0.97"/>
          </g>
        </g>
        <g class="af">
          <g class="ak">
            <rect class="ah" x="237.44" y="233.27" width="46.92" height="0.97"/>
          </g>
        </g>
        <g class="af">
          <g class="al">
            <path class="ah" d="M600.82,367.27H587.94a1.76,1.76,0,0,1-1.76-1.76v-6.3a1.76,1.76,0,0,1,1.76-1.76h12.88a1.76,1.76,0,0,1,1.76,1.76v6.3a1.76,1.76,0,0,1-1.76,1.76" transform="translate(-316.89 -105.39)"/>
          </g>
        </g>
      </g>
      <text class="am" transform="translate(271.7 259.17)">VISA</text>
      <g class="c">
        <path class="an" d="M370,295.54a1.39,1.39,0,1,1-1.39-1.39,1.39,1.39,0,0,1,1.39,1.39" transform="translate(-316.89 -105.39)"/>
        <path class="an" d="M390.8,177.33a1.39,1.39,0,1,1-1.39-1.39,1.39,1.39,0,0,1,1.39,1.39" transform="translate(-316.89 -105.39)"/>
        <path class="an" d="M466.36,130.25a1.39,1.39,0,1,1-1.39-1.39,1.39,1.39,0,0,1,1.39,1.39" transform="translate(-316.89 -105.39)"/>
        <path class="an" d="M536.2,137.58a1.39,1.39,0,1,1-1.39-1.39,1.39,1.39,0,0,1,1.39,1.39" transform="translate(-316.89 -105.39)"/>
        <path class="an" d="M612.21,190.91a1.39,1.39,0,1,1-1.39-1.39,1.39,1.39,0,0,1,1.39,1.39" transform="translate(-316.89 -105.39)"/>
        <line class="ao" x1="49.79" y1="113.75" x2="49.79" y2="117.61"/>
        <line class="ao" x1="51.72" y1="115.68" x2="47.86" y2="115.68"/>
        <line class="ao" x1="99.07" y1="127.82" x2="99.07" y2="131.67"/>
        <line class="ao" x1="100.99" y1="129.75" x2="97.14" y2="129.75"/>
        <line class="ao" x1="278.47" y1="28.87" x2="278.47" y2="32.73"/>
        <line class="ao" x1="280.4" y1="30.8" x2="276.54" y2="30.8"/>
        <line class="ao" x1="313.99" y1="169.28" x2="313.99" y2="173.14"/>
        <line class="ao" x1="315.92" y1="171.21" x2="312.06" y2="171.21"/>
        <line class="ao" x1="254.14" y1="110.58" x2="254.14" y2="114.44"/>
        <line class="ao" x1="256.07" y1="112.51" x2="252.21" y2="112.51"/>
        <g class="d">
          <g class="ap">
            <path class="f" d="M438.79,390.18c0,1.22-25.35,2.21-56.62,2.21s-56.62-1-56.62-2.21S350.89,388,382.16,388s56.62,1,56.62,2.21" transform="translate(-316.89 -105.39)"/>
          </g>
        </g>
        <path class="aq" d="M421.93,390.63c2.22-.19,4.44-1.39,5.41-1.48a33.62,33.62,0,0,0,3.58-.81c.6-.17-.49-3.82-1.43-3.93a2.79,2.79,0,0,1-.49.33,4.93,4.93,0,0,1-2.54.52c-1.34,1.3-1.3,1.67-3,2.68a10.78,10.78,0,0,0-2,1.57c-.65.68-.77,1.23.48,1.12" transform="translate(-316.89 -105.39)"/>
        <path class="ar" d="M428.94,382.78a7.25,7.25,0,0,0,.66,1.82c-1.71,2-3.16.91-3.16.91v-.26l-.42-1.89Z" transform="translate(-316.89 -105.39)"/>
        <path class="as" d="M408.19,286.72s-1.07,11.2-3.17,15c-1.76,3.16-15.33,7.86-16.24,8.87-1.46,1.61-2.86-.11-4.57.81-.57.31-.29.58-1.08.74s-2-1,.36-2.93c1.37-.77,3.82-.71,3.91-.8s9.92-6.57,10.34-7.87,1.93-16,1.93-16Z" transform="translate(-316.89 -105.39)"/>
        <path class="aq" d="M390.29,389.71c2.17.52,4.65.08,5.6.3a33.81,33.81,0,0,0,3.65.37c.63,0,.75-3.78-.12-4.19a2.81,2.81,0,0,1-.57.16,4.92,4.92,0,0,1-2.58-.31c-1.69.8-1.76,1.17-3.66,1.6a10.81,10.81,0,0,0-2.43.85c-.83.44-1.12.92.1,1.22" transform="translate(-316.89 -105.39)"/>
        <path class="ar" d="M399.43,384.49a7.26,7.26,0,0,0,0,1.94c-2.24,1.31-3.28-.13-3.28-.13l.09-.25.2-1.93Z" transform="translate(-316.89 -105.39)"/>
        <path class="at" d="M419.13,325.12s4.64-9.41-2-16.87c0,0-6.17,2.31-11,2.33a23.89,23.89,0,0,1-5.7-.5,122.81,122.81,0,0,0-1.52,18Z" transform="translate(-316.89 -105.39)"/>
        <path class="at" d="M404.55,357.36v0c0,9.47-3.28,21.59-4.43,28.44l-.36,0a20.51,20.51,0,0,1-3.91-.51l0-.73c.84-11,.64-29.21.74-34.94a7,7,0,0,1,.1-1.09c.7-4.16,5-3.34,6.56.62a14.22,14.22,0,0,1,.65,2.09c.07.3.13.6.19.92h0a24.57,24.57,0,0,1,.36,3.11v.11c0,.31,0,.62,0,.93v.07c0,.32,0,.64,0,1" transform="translate(-316.89 -105.39)"/>
        <path class="at" d="M411.22,329.1c0,.11-.06.23-.1.35-1,4-3.82,13.6-5.78,19.39v0c-.45,1.33-.86,2.46-1.19,3.27h0a2.06,2.06,0,0,1-1.13,1,3.75,3.75,0,0,1-.86.27c-2.21.46-5.4-.56-5.41-4.91a11.08,11.08,0,0,1,.12-1.57c.51-3.5,2.51-22.92,2.78-24.78s.78-4.59,1.79-4.88c5.06-1.4,11.54,4.83,9.8,11.8" transform="translate(-316.89 -105.39)"/>
        <path class="aq" d="M404.35,350.52l1-1.65v0a25.54,25.54,0,0,0-.83,6.39v.11c0,.3,0,.62,0,.93v.07a4.34,4.34,0,0,1,0,1v0c-.19.81-1.3-3.26-1.55-4.21l0-.19,1-1.74Z" transform="translate(-316.89 -105.39)"/>
        <g class="af">
          <g class="au">
            <path class="av" d="M411.12,329.45c-1,4-3.82,13.6-5.78,19.39v0a25.54,25.54,0,0,0-.83,6.39v.11c0,.31,0,.62,0,.93v.07c0,.32,0,.64,0,1v0c0,9.47-3.28,21.59-4.43,28.44l-.36,0s1.33-11.25,2.83-19a31.15,31.15,0,0,0-.45-13.34c-.16-.62-.28-1-.28-1l1.43-3.33c1.64-4.35,2.32-14.7,2.32-14.7-2.84-7.49-2.72-16.7-2.72-16.7l2.8.57,4.68,6.39Z" transform="translate(-316.89 -105.39)"/>
          </g>
        </g>
        <path class="at" d="M419.8,349.91c-3.15-3.36-7.91-2.16-6,2.86,2,5.38,8.28,20.35,11.53,30.94l.23.69a21.21,21.21,0,0,0,4.17-1.07c-1.43-6.83-2.05-18.5-5.41-26.8a21.89,21.89,0,0,0-4.48-6.62" transform="translate(-316.89 -105.39)"/>
        <path class="at" d="M402.88,317.76c-.16-7.82,9.21-2,13.7.82,1.89,1.2,2.47,3.41,2.6,5.46s1.33,23.17,1.59,27c.59,8.69-6.64,3.5-7.2,1.07C412.16,346,403,322,402.88,317.76" transform="translate(-316.89 -105.39)"/>
        <path class="ar" d="M396.43,256.78s-1.61,15.18,9.85,12c.58.07,4.09-.8,4.6-5.4a17.19,17.19,0,0,0-2.33-9.63c-.22-.15-7.44-.37-7.74-.37s-4.38,3.43-4.38,3.43" transform="translate(-316.89 -105.39)"/>
        <path class="aw" d="M406.06,260.65a2.8,2.8,0,0,1-1.31-3.21c.44-2.41.15-2.55-1.61-1.53s-10.58,5.84-9-5.4c1,.58,4.23.51,4.89-.88s8.17-5.18,11,.37c2,.07,4.23,2.34,4,6.79s-1.84,10.2-3.5,10.51-2.56-1-2.48-3.14c.07-1.09,3.28-2.55.95-5.84a1.91,1.91,0,0,0-2.92,2.34" transform="translate(-316.89 -105.39)"/>
        <path class="ar" d="M409.28,267.17s-.94,3,0,4.25c-2.22,1.75-6.26,1.22-6.26,1.22s1.22-1.26,0-5.47,6.26,0,6.26,0" transform="translate(-316.89 -105.39)"/>
        <path class="ax" d="M396.73,289.7s2.91,2.27,5,2.45l-1.12-12.67-1.18,3.11Z" transform="translate(-316.89 -105.39)"/>
        <path class="ay" d="M396.73,289.7s2.91,2.27,5,2.45l-.8-12.78-.31.11a26.3,26.3,0,0,0-1.37,8.56c0,.31,0,1.7,0,2.28s-1.55-.32-2.51-.62" transform="translate(-316.89 -105.39)"/>
        <path class="ax" d="M399,309.72l.37.15c1.67.64,8.31,4.51,17.28,0a4.5,4.5,0,0,0,1.69-2.2s-1.46-3.31-1.75-12.94,0-10.71-1.65-15.47c-1.42-4.16-6-9.29-6-9.29s-4.3,2.68-5.85,2.68c-1.95,4.76-4,10.93-3.26,15.39.48,3,0,11.64-.43,17.07-.2,2.71-.37,4.61-.37,4.61" transform="translate(-316.89 -105.39)"/>
        <path class="ay" d="M399,309.72l.37.15c3.83-3,8.85-7.28,10.2-9.13,1.63-2.23,2.22-6,2.42-7.71l.8,0a25.94,25.94,0,0,0-.82-12.56l-7,2.55-2.63,8a19.78,19.78,0,0,0,3.49,1.21,42.37,42.37,0,0,1-1.19,7.13,58.21,58.21,0,0,1-5.22,5.83c-.2,2.71-.37,4.61-.37,4.61" transform="translate(-316.89 -105.39)"/>
        <path class="az" d="M383.13,312a1.82,1.82,0,1,0,1.82-1.82,1.83,1.83,0,0,0-1.82,1.82" transform="translate(-316.89 -105.39)"/>
        <polygon class="z" points="8.76 224.2 6.98 249.16 30.79 249.16 29.15 224.15 8.76 224.2"/>
        <path class="aa" d="M330.38,331.78h0a.83.83,0,1,1,.82.69.76.76,0,0,1-.82-.69m.81-.43a.44.44,0,1,0,0,.85h0a.44.44,0,1,0,0-.85Zm-.69.43h0Z" transform="translate(-316.89 -105.39)"/>
        <path class="aa" d="M338.49,331.76h0a.63.63,0,0,1,.19-.45.88.88,0,0,1,.62-.25h0a.76.76,0,0,1,.82.69.63.63,0,0,1-.25.5.9.9,0,0,1-.57.2h0a.76.76,0,0,1-.82-.69m.81-.43a.62.62,0,0,0-.44.17.37.37,0,0,0-.12.26.51.51,0,0,0,.55.43h0a.63.63,0,0,0,.4-.13.38.38,0,0,0,.15-.29.5.5,0,0,0-.55-.43Z" transform="translate(-316.89 -105.39)"/>
        <path class="aa" d="M335,336.8h.23a4.38,4.38,0,0,0,3.38-1.43,5.08,5.08,0,0,0,1-3.65.26.26,0,0,0-.52.08,4.61,4.61,0,0,1-.83,3.23,3.89,3.89,0,0,1-3,1.24,3.54,3.54,0,0,1-2.89-1,4.81,4.81,0,0,1-.87-3.44.26.26,0,0,0-.22-.3.27.27,0,0,0-.3.22,5.27,5.27,0,0,0,1,3.87A3.93,3.93,0,0,0,335,336.8" transform="translate(-316.89 -105.39)"/>
        <polygon class="ab" points="17.96 230.19 15.11 248.75 40.96 248.69 38.34 230.15 17.96 230.19"/>
        <ellipse class="ba" cx="340.39" cy="337.82" rx="0.69" ry="0.57" transform="translate(-317.85 -104.42) rotate(-0.16)"/>
        <ellipse class="ba" cx="348.51" cy="337.8" rx="0.69" ry="0.57" transform="translate(-317.61 -104.65) rotate(-0.12)"/>
        <path class="bb" d="M348.51,337.8s.67,4.71-4.08,4.87-4-4.86-4-4.86" transform="translate(-316.89 -105.39)"/>
        <path class="z" d="M361.43,380.86a4.89,4.89,0,1,0,4.89,4.89,4.89,4.89,0,0,0-4.89-4.89m0,7.37a2.48,2.48,0,1,1,2.48-2.48,2.48,2.48,0,0,1-2.48,2.48" transform="translate(-316.89 -105.39)"/>
        <path class="z" d="M331,380.86a4.89,4.89,0,1,0,4.89,4.89,4.89,4.89,0,0,0-4.89-4.89m0,7.16a2.27,2.27,0,1,1,2.28-2.27A2.27,2.27,0,0,1,331,388" transform="translate(-316.89 -105.39)"/>
        <path class="ae" d="M361.43,380.86a4.89,4.89,0,1,0,4.89,4.89,4.89,4.89,0,0,0-4.89-4.89m0,7.37a2.48,2.48,0,1,1,2.48-2.48,2.48,2.48,0,0,1-2.48,2.48" transform="translate(-316.89 -105.39)"/>
        <path class="ae" d="M331,380.86a4.89,4.89,0,1,0,4.89,4.89,4.89,4.89,0,0,0-4.89-4.89m0,7.16a2.27,2.27,0,1,1,2.28-2.27A2.27,2.27,0,0,1,331,388" transform="translate(-316.89 -105.39)"/>
        <path class="bc" d="M384.21,312H374a3.14,3.14,0,0,0-2.79,1.7l-7.4,14.67" transform="translate(-316.89 -105.39)"/>
        <path class="bc" d="M324.35,354.55h32.83a3.56,3.56,0,0,0,3.52-3l3.4-21.19a3.56,3.56,0,0,0-3.52-4.12H321a3.56,3.56,0,0,0-3.52,4.12l3.4,21.19A3.56,3.56,0,0,0,324.35,354.55Z" transform="translate(-316.89 -105.39)"/>
        <line class="bc" x1="23.87" y1="220.85" x2="23.87" y2="249.16"/>
        <line class="bc" x1="45.59" y1="235" x2="2.15" y2="235"/>
        <line class="bc" x1="36.84" y1="220.85" x2="34.03" y2="249.16"/>
        <line class="bc" x1="12.85" y1="220.85" x2="15.45" y2="249.16"/>
        <path class="bc" d="M360.22,354.55l6.52,21.5a3.77,3.77,0,0,1-3.61,4.87h-33" transform="translate(-316.89 -105.39)"/>
        <polyline class="bd" points="263.72 150.59 260.69 152.21 262.2 148.26"/>
        <path class="bd" d="M590,250.93a6.42,6.42,0,1,1-6.42-6.42,6.42,6.42,0,0,1,6.42,6.42" transform="translate(-316.89 -105.39)"/>
        <path class="be" d="M582.47,254c1.4,0,2.82,0,4.1,0,.41,0,.76-.68.26-.88a.91.91,0,0,0,.51-.44.44.44,0,0,0-.25-.58c.49.12.68-.65.3-.9a1.13,1.13,0,0,0,.41-.66.66.66,0,0,0-.29-.68,1.07,1.07,0,0,0-.5-.09h-1.75A4,4,0,0,0,585,247c-.14-.24-.51-.53-.81-.34s-.2.61-.19.88a3.08,3.08,0,0,1-1.59,2.81s.07,2.41.05,3.64" transform="translate(-316.89 -105.39)"/>
        <rect class="be" x="262.96" y="144.97" width="2.12" height="3.64"/>
        <g class="bf">
          <g class="bg animate">
            <polyline class="aa" points="249.06 64.97 244.41 67.45 246.73 61.4"/>
            <path class="aa" d="M580.4,162.62a9.84,9.84,0,1,1-9.84-9.84,9.84,9.84,0,0,1,9.84,9.84" transform="translate(-316.89 -105.39)"/>
            <path class="be" d="M568.8,167.33c2.14,0,4.31.07,6.29-.07.62,0,1.16-1,.41-1.35a1.41,1.41,0,0,0,.78-.68.67.67,0,0,0-.38-.88c.74.18,1-1,.46-1.38a1.74,1.74,0,0,0,.63-1,1,1,0,0,0-.45-1,1.62,1.62,0,0,0-.77-.13l-2.67,0a6.17,6.17,0,0,0-.39-4.14c-.21-.37-.79-.81-1.24-.53s-.31.93-.29,1.35a4.71,4.71,0,0,1-2.43,4.3s.1,3.7.08,5.58" transform="translate(-316.89 -105.39)"/>
            <rect class="be" x="247.89" y="56.36" width="3.24" height="5.58"/>
          </g>
        </g>
        <g class="bf">
          <g class="bh animate">
            <polyline class="ae" points="65.48 91.57 68.86 93.37 67.17 88.98"/>
            <path class="ae" d="M371.9,191.35a7.13,7.13,0,1,0,7.13-7.13,7.14,7.14,0,0,0-7.13,7.13" transform="translate(-316.89 -105.39)"/>
            <path class="be" d="M380.31,194.77c-1.55,0-3.13,0-4.56-.05-.45,0-.84-.75-.29-1a1,1,0,0,1-.57-.49.49.49,0,0,1,.27-.64c-.54.13-.75-.72-.33-1a1.26,1.26,0,0,1-.46-.73.73.73,0,0,1,.33-.75,1.18,1.18,0,0,1,.56-.1h1.94a4.49,4.49,0,0,1,.29-3c.16-.27.57-.59.9-.38s.22.67.21,1a3.42,3.42,0,0,0,1.76,3.12s-.07,2.68-.06,4" transform="translate(-316.89 -105.39)"/>
            <rect class="be" x="63.98" y="85.33" width="2.35" height="4.04"/>
          </g>
          
        </g>
        <path class="ae" d="M339.37,237.08h56.68a4.57,4.57,0,0,0,4.57-4.57V222.26a4.57,4.57,0,0,0-4.57-4.57H339.37a4.57,4.57,0,0,0-4.57,4.57v10.26a4.57,4.57,0,0,0,4.57,4.57" transform="translate(-316.89 -105.39)"/>
        <path class="ae" d="M394.47,234.13s1.72,12.25,1.72,11.5-8.67-10.47-8.67-10.47Z" transform="translate(-316.89 -105.39)"/>
        <polygon class="ab" points="29 120.48 32.28 121 29.87 123.29 30.38 126.57 27.46 124.98 24.5 126.48 25.11 123.22 22.76 120.86 26.06 120.44 27.57 117.48 29 120.48"/>
        <polygon class="ab" points="40.63 120.48 43.91 121 41.5 123.29 42.01 126.57 39.09 124.98 36.13 126.48 36.74 123.22 34.39 120.86 37.69 120.44 39.2 117.48 40.63 120.48"/>
        <polygon class="ab" points="52.26 120.48 55.54 121 53.13 123.29 53.64 126.57 50.72 124.98 47.76 126.48 48.37 123.22 46.02 120.86 49.32 120.44 50.83 117.48 52.26 120.48"/>
        <polygon class="ab" points="64.75 123.29 65.27 126.57 62.46 125.05 62.35 124.99 59.39 126.49 59.99 123.22 57.65 120.87 60.94 120.44 62.46 117.48 63.89 120.48 67.17 121.01 64.75 123.29"/>
        <polygon class="ab" points="75.52 120.48 78.8 121 76.38 123.29 76.9 126.57 73.98 124.98 71.02 126.48 71.63 123.22 69.28 120.86 72.58 120.44 74.09 117.48 75.52 120.48"/>
        <polygon class="ab" points="62.46 117.48 62.46 125.05 62.35 124.99 59.39 126.49 59.99 123.22 57.65 120.87 60.94 120.44 62.46 117.48"/>
      </g>
      <g class="bi">
        <rect class="ae" x="387.95" y="145.06" width="214.65" height="241.97" transform="translate(-379.95 226.55) rotate(-34.97)"/>
      </g>
      <g class="c">
        <path class="bj" d="M481.42,165.44a1.49,1.49,0,1,1-1.49-1.49,1.49,1.49,0,0,1,1.49,1.49" transform="translate(-316.89 -105.39)"/>
        <path class="bj" d="M512.37,167.29h-26a1.28,1.28,0,0,1-1.28-1.28v-1.13a1.28,1.28,0,0,1,1.28-1.28h26a1.28,1.28,0,0,1,1.28,1.28V166a1.28,1.28,0,0,1-1.28,1.28" transform="translate(-316.89 -105.39)"/>
        <path class="bk" d="M501.22,366.54a6,6,0,1,1-6-6,6,6,0,0,1,6,6" transform="translate(-316.89 -105.39)"/>
        <rect class="bl" x="126.55" y="69.17" width="102.82" height="182.97"/>
        <path class="bm" d="M518.64,238.32l-15.77-11.06a8.69,8.69,0,0,0-9.73,0l-15.77,11.06a13.26,13.26,0,0,0-6,10.79v59.44a8.92,8.92,0,0,0,8.92,8.92h35.38a8.92,8.92,0,0,0,8.92-8.92V249.11a13.24,13.24,0,0,0-6-10.79m-20.64,0c-2.35,0-4.26-1.63-4.26-3.63S495.65,231,498,231s4.26,1.63,4.26,3.63-1.91,3.63-4.26,3.63" transform="translate(-316.89 -105.39)"/>
        <path class="ar" d="M500.26,257.36a14.24,14.24,0,0,1,4.64,1.44,14.06,14.06,0,0,1,3.41,2.45,11.24,11.24,0,0,1,2.13,2.88,6.79,6.79,0,0,1,.8,2.67.94.94,0,0,1-.32.83,1.22,1.22,0,0,1-.85.35h-2.19a1.77,1.77,0,0,1-.94-.21,2.36,2.36,0,0,1-.72-1,10.1,10.1,0,0,0-.88-1.36,8,8,0,0,0-1.65-1.6,10.25,10.25,0,0,0-2.53-1.33,9.85,9.85,0,0,0-3.47-.56,11.53,11.53,0,0,0-2.85.35,8.11,8.11,0,0,0-2.43,1,5.47,5.47,0,0,0-1.71,1.73,4.54,4.54,0,0,0-.64,2.43,4.26,4.26,0,0,0,.61,2.35,5.49,5.49,0,0,0,2,1.73A17.25,17.25,0,0,0,496.1,273q2.08.64,5.07,1.44a32.51,32.51,0,0,1,5.15,1.76,13.42,13.42,0,0,1,3.44,2.16,7.25,7.25,0,0,1,1.95,2.77A9.76,9.76,0,0,1,509,292a13.16,13.16,0,0,1-3.81,2.29,17.79,17.79,0,0,1-5,1.17v3.47a1.46,1.46,0,0,1-1.44,1.44h-2.19a1.46,1.46,0,0,1-1.44-1.44v-3.57a15.63,15.63,0,0,1-4.64-1.39,16.11,16.11,0,0,1-3.6-2.35,10.59,10.59,0,0,1-2.37-2.91,6.9,6.9,0,0,1-.91-3.07,1.18,1.18,0,0,1,1.17-1.17H487a2,2,0,0,1,.93.21,1.88,1.88,0,0,1,.72,1,7.91,7.91,0,0,0,1,1.63,7.64,7.64,0,0,0,1.79,1.65,10.76,10.76,0,0,0,2.72,1.31,12,12,0,0,0,3.79.53,14.32,14.32,0,0,0,3.55-.43,10.36,10.36,0,0,0,3-1.23,6.62,6.62,0,0,0,2-1.92,4.42,4.42,0,0,0,.75-2.51,3.51,3.51,0,0,0-.85-2.37,7.84,7.84,0,0,0-2.45-1.79A23.17,23.17,0,0,0,500,279q-2.32-.66-5.25-1.41a21,21,0,0,1-4.53-1.68,11.1,11.1,0,0,1-3-2.27,7.66,7.66,0,0,1-1.68-2.83,10.73,10.73,0,0,1-.51-3.36,9.8,9.8,0,0,1,.64-3.47,9.58,9.58,0,0,1,1.89-3.09,10.59,10.59,0,0,1,3.17-2.35,13.81,13.81,0,0,1,4.48-1.28v-3.52a1.46,1.46,0,0,1,1.44-1.44h2.19a1.46,1.46,0,0,1,1.44,1.44Z" transform="translate(-316.89 -105.39)"/>
        <path class="bn" d="M495.61,225.66c-3.46-11.19-8.35-31.85,2.35-32.21,14.75-.5,0,39.15,0,39.15l-.77-1.56" transform="translate(-316.89 -105.39)"/>
        <g class="bo">
          <g class="bp">
            <polygon class="ar" points="194.59 69.17 126.55 173.35 126.55 115.32 156.69 69.17 194.59 69.17"/>
          </g>
        </g>
        <g class="bo">
          <g class="bq">
            <polygon class="ar" points="223.24 69.17 126.55 217.22 126.55 190.33 205.68 69.17 223.24 69.17"/>
          </g>
        </g>
        <g class="bo">
          <g class="br">
            <polygon class="ar" points="229.37 129.75 229.37 156.64 167 252.14 149.44 252.14 229.37 129.75"/>
          </g>
        </g>
        <g class="bf">
          <g class="bs animate animate-3">
            <polyline class="aa" points="111.82 46.73 116.55 49.26 114.18 43.1"/>
            <path class="aa" d="M414,144.26a10,10,0,1,0,10-10,10,10,0,0,0-10,10" transform="translate(-316.89 -105.39)"/>
            <path class="ar" d="M419.81,141.53a2.44,2.44,0,0,1,3.45,0l.62.63.64-.63A2.44,2.44,0,1,1,428,145l-2.37,2.34v0a2.44,2.44,0,0,1-3.45,0L419.77,145a2.44,2.44,0,0,1,0-3.45" transform="translate(-316.89 -105.39)"/>
          </g>
                                 

        </g>
        
        <g class="bf">
          <g class="bt animate animate-4">
            <polyline class="aa" points="299.97 108.56 296.67 110.33 298.32 106.03"/>
            <path class="aa" d="M627.11,208.46a7,7,0,1,1-7-7,7,7,0,0,1,7,7" transform="translate(-316.89 -105.39)"/>
            <path class="ar" d="M623.08,206.56a1.7,1.7,0,0,0-2.41,0l-.43.44-.45-.44a1.7,1.7,0,1,0-2.39,2.43l1.66,1.63h0a1.71,1.71,0,0,0,2.41,0L623.1,209a1.71,1.71,0,0,0,0-2.41" transform="translate(-316.89 -105.39)"/>
          </g>
           
        </g>
        <g class="bu">
          <g class="bv">
            <path d="M579.57,369.38a27.59,27.59,0,0,1-.71-9.65c.56-5.39,4.09-19.11,3.61-24.21a8.46,8.46,0,0,0-1.43-3.78c-.17-.28-.37-.54-.56-.8a29,29,0,0,0,.7-5.46H557.29c.58,2.56,2.53,5.23,8.21,7.7a4.6,4.6,0,0,0,2.72-1.36l3.26,1.92.56.34A94.81,94.81,0,0,0,571.5,346c0,1.66.11,3.32,0,5a12.36,12.36,0,0,1-.56,2.59.36.36,0,0,0,0-.1c-.17.06-.26.45-.33.61s-.2.48-.29.72c-.19.49-.35,1-.5,1.49a21.21,21.21,0,0,0-.24,10.76,2.08,2.08,0,0,0,.74,1.32,3,3,0,0,0,1.36.54,3.26,3.26,0,0,0,1.43-.1,2,2,0,0,0,1.16-1.1,15,15,0,0,0,.71,6.33h5a13.4,13.4,0,0,0-.34-4.63Zm-22.71-34.55c-.42-2.88-1.37-4.08-2-4.58a.63.63,0,0,1,.35.09,1.42,1.42,0,0,1,.74.64.49.49,0,0,0,.92,0,9.16,9.16,0,0,0-.17-2.8c0-.34.08-1.34.17-2.66h-3.5c.07.92.12,1.59.12,1.84,0,1.14-1.29,1.2-2.09,1.81a2,2,0,0,0-.56.86c-1.11.38-2.33,1.56-2.54,4.84h-5.66l-2.48,21.64h25.13l-2.83-21.64Zm-6.07,0,1.45-2.53.43,0a2.47,2.47,0,0,0,1.27-.42l1.2,3Zm5.15,0c0-.19-.07-.37-.1-.55l.23.55Z" transform="translate(-316.89 -105.39)"/>
          </g>
        </g>
        <path class="bw" d="M550.11,336a.29.29,0,0,1-.28-.26c-.3-3.73.29-6.21,1.76-7.36a3.4,3.4,0,0,1,3-.56.28.28,0,0,1,.18.36.29.29,0,0,1-.36.18,2.81,2.81,0,0,0-2.47.47c-1.29,1-1.82,3.4-1.54,6.87a.28.28,0,0,1-.26.31h0" transform="translate(-316.89 -105.39)"/>
        <path class="bw" d="M558,335.78a.28.28,0,0,1-.28-.28c-.18-6.76-2.7-7.13-2.73-7.13a.29.29,0,0,1-.25-.32.28.28,0,0,1,.32-.25c.12,0,3,.44,3.23,7.68a.28.28,0,0,1-.28.29h0" transform="translate(-316.89 -105.39)"/>
        <polygon class="bx" points="247.34 227.63 250.16 249.27 225.03 249.27 227.52 227.63 247.34 227.63"/>
        <path class="bw" d="M551,336a.28.28,0,0,1-.28-.26c-.3-3.73.29-6.21,1.76-7.36a3.4,3.4,0,0,1,3-.56.28.28,0,0,1,.18.36.29.29,0,0,1-.36.18,2.81,2.81,0,0,0-2.47.47c-1.29,1-1.82,3.4-1.54,6.87a.29.29,0,0,1-.26.31h0" transform="translate(-316.89 -105.39)"/>
        <path class="bw" d="M558.88,335.78a.28.28,0,0,1-.28-.28c-.18-6.68-2.71-7.13-2.73-7.13a.29.29,0,0,1-.24-.32.28.28,0,0,1,.31-.25c.12,0,3,.44,3.23,7.68a.28.28,0,0,1-.28.29h0" transform="translate(-316.89 -105.39)"/>
        <path class="by" d="M581.45,367.95c.24,1.66-.28,4.35-2,3.6-1.37-.6-2.5-3.82-2.57-8.58,0-.36,0-.73,0-1.11,0-.86.06-1.76.15-2.7a3.8,3.8,0,0,1-.58-1.11,30.85,30.85,0,0,1-1-8.42c-.13-5.58.29-11.42.29-11.42l-.32-5-.87-.52-1.24-.73-6.13-3.62,5.29-4.59.63-.55.13-.11,3.86,1.28a22.91,22.91,0,0,1,4.75,4.19h0a12.45,12.45,0,0,1,1,1.39,8.43,8.43,0,0,1,1.42,3.77c.48,5.11-3,18.83-3.6,24.22a27.47,27.47,0,0,0,.71,9.65s0,0,0,0,0,.24.06.35" transform="translate(-316.89 -105.39)"/>
        <path class="az" d="M580.36,374.9c-6-.14-4.12-11-4.12-11l-.28-2.26.92.23c-.1,5.36,1.1,9,2.57,9.69,1.7.75,2.22-1.94,2-3.6,0-.11,0-.22-.06-.35.87,3.5.24,7.25-1,7.3" transform="translate(-316.89 -105.39)"/>
        <path class="bz" d="M581.5,334.45c-3.41,9.46-4.09,18.23-3.93,19.36a52.45,52.45,0,0,1,.18,5.33,15,15,0,0,1-.86,3.83c-.64,1.62-1.65,2.9-3.21,2.13-2.88-1.42-2.36-7-1.17-10.28.51-1.84,1.34-3.55,1.49-5.46.14-1.66,0-3.31,0-5a95.42,95.42,0,0,1,.51-11.71,52.45,52.45,0,0,1,1.19-6.63l-2.64-2.85.13-.11,3.86,1.28a21.49,21.49,0,0,1,5.78,5.59,43.75,43.75,0,0,1-1.36,4.52" transform="translate(-316.89 -105.39)"/>
        <path class="y" d="M555.81,300.41s-1.26,8.44-1.27,11.66c0,6.3.72,12.31.72,13.44s-1.29,1.19-2.09,1.81-1.56,3.53,1.32,3.14c1.47-.21,1.55-.56,1.87-1.6.06-.19,0-.6.62-.33a1.42,1.42,0,0,1,.74.64.49.49,0,0,0,.92,0c.12-.47-.52-1.41-.72-3,.18-2.58.89-10.85.79-13.5.47-3.88,2.23-11.39,2.23-11.39Z" transform="translate(-316.89 -105.39)"/>
        <path class="bz" d="M581.83,328.53h0a41.7,41.7,0,0,1-1.63,5.73c-3.41,9.46-4.08,18.23-3.93,19.35a40.4,40.4,0,0,1,.19,4.42l-1-8.42c-.13-5.58.29-11.42.29-11.42l-.32-5-.87-.52-1.24-.73a51.53,51.53,0,0,1,1.12-6.08l-2-2.13.63-.55.13-.11,3.86,1.28a22.91,22.91,0,0,1,4.75,4.19" transform="translate(-316.89 -105.39)"/>
        <path class="y" d="M579.2,315.73l-9.53,4.33,5.34,5.8c-1.89,7.47-1.7,15.61-1.7,18.35,0,1.66.11,3.32,0,5-.15,1.91-1,3.62-1.49,5.46-1.18,3.33-1.7,8.87,1.17,10.29s3.93-4.16,4.07-6a51.52,51.52,0,0,0-.18-5.33c-.16-1.13.52-9.9,3.93-19.36s1.89-14.33,1.89-14.33Z" transform="translate(-316.89 -105.39)"/>
        <path class="y" d="M564.94,282.58v1.94c0,.66-1.82,1.42-2.7,1.61s1.3,5,4.23,4.9a7.31,7.31,0,0,0,6.4-5.77c-1.62-.21-2.78,0-3-.38a4.48,4.48,0,0,1-.45-2.7c.16-1.16-4.45.4-4.45.4" transform="translate(-316.89 -105.39)"/>
        <path class="aq" d="M582.68,319.94c-3.62-1.78-6.67,1.7-8.94,5.32s-4.4,6-6.42,6.11c-9-3.9-8.62-8.3-8.33-12a17,17,0,0,1,1.56-6.1,140,140,0,0,1,15.18-1.2c2.91,1.49,6.6,5.6,7,7.87" transform="translate(-316.89 -105.39)"/>
        <path class="z" d="M581.59,301.14a7.8,7.8,0,0,1-6.53,1.21l-.33-.09a9.66,9.66,0,0,0-2.33-.14,67.87,67.87,0,0,0-8,1c-1,.16-1.86.3-2.56.39a6.52,6.52,0,0,1-1.42.07,38.27,38.27,0,0,1-4.11-.75l-1.63-.38s0-.07,0-.21c.22-1.36,1.57-8.87,1.95-10.24a8.67,8.67,0,0,1,7.23-6.54s-.11,4.27,4,4.27c2,0,2.88-1.63,3.36-4.62,1.78,0,8.44,0,10.26,15.57l.05.43" transform="translate(-316.89 -105.39)"/>
        <g class="ca">
          <g class="cb">
            <path class="cc" d="M582.68,319.94c-3.62-1.78-6.67,1.7-8.94,5.32s-4.4,6-6.42,6.11c-9-3.9-8.62-8.3-8.33-12a17,17,0,0,1,1.56-6.1,140,140,0,0,1,15.18-1.2l-7.65,2.81c-1.52.56-6,0-6.39-.19s-1.7,6.2-1.09,8.37,5,7,7.29,6.53,4.73-4,5.91-5.77,4.21-6.86,8.89-3.88" transform="translate(-316.89 -105.39)"/>
          </g>
        </g>
        <path class="az" d="M573.43,367.1a3.08,3.08,0,0,1-1.36-.55,2.11,2.11,0,0,1-.74-1.31,21.21,21.21,0,0,1-.39-7.74,20.84,20.84,0,0,1,.64-3c.15-.5,1.16-2.66,1.14-2.58a25.7,25.7,0,0,0-1.25,8.14,5.48,5.48,0,0,0,.4,2,2.5,2.5,0,0,0,1.42,1.38,2.63,2.63,0,0,0,2.85-1.21A7.11,7.11,0,0,0,577,359a17.93,17.93,0,0,1-.86,6.52,2.32,2.32,0,0,1-1.32,1.46,3.32,3.32,0,0,1-1.44.1" transform="translate(-316.89 -105.39)"/>
        <path class="cd" d="M564.61,303.91c0,.78-1,1.18-1,1.18h-1.28a10.84,10.84,0,0,0-.43-1.54,6.52,6.52,0,0,1-1.42.07,38.32,38.32,0,0,1-4.11-.75l-1.63-.38s0-.07,0-.21c3.21.78,6.14-.06,5.83-.77-1.84-4.26.78-8.7,1-9,.4.17.21,1.83.21,1.83s.45,3.32.54,3.51,1.56,3.62,2.08,5.26a3.51,3.51,0,0,1,.19.74" transform="translate(-316.89 -105.39)"/>
        <path class="cd" d="M581.59,301.14a7.8,7.8,0,0,1-6.53,1.21l-.33-.09a9.66,9.66,0,0,0-2.33-.14c.33-1.83.9-4.27.94-4.4s-.08-3.55-.08-3.55a3.73,3.73,0,0,1,.79-1,9,9,0,0,1,1.66,7.84c-.18.74,2.87,1.48,5.88.17h0" transform="translate(-316.89 -105.39)"/>
        <path class="z" d="M575.72,312.07c-.71-.15-3.76.64-7.17,1.7s-8-.5-8-.5a38.82,38.82,0,0,1,1.51-4.54,6.29,6.29,0,0,0,.24-3.64,10.86,10.86,0,0,0-.43-1.54,29,29,0,0,0-.92-2.84c-1.25-2.86-.14-6.12.19-8.16h13.41c.92,3.33,1.11,6.31.61,7.73a12,12,0,0,0-.43,2,22.22,22.22,0,0,0-.28,4.48,21.2,21.2,0,0,0,1.28,5.32" transform="translate(-316.89 -105.39)"/>
        <path class="cd" d="M560.59,300.41a2.6,2.6,0,0,0,1.2,1.49,4.29,4.29,0,0,0,1.77.65,4.14,4.14,0,0,0,1.87-.2,7.3,7.3,0,0,0,1.73-1,4.34,4.34,0,0,1-1.56,1.39,3.68,3.68,0,0,1-2.12.36,3.78,3.78,0,0,1-2-.87,3.58,3.58,0,0,1-.7-.81,1.8,1.8,0,0,1-.24-1" transform="translate(-316.89 -105.39)"/>
        <path class="cd" d="M569,301.12a4,4,0,0,0,1.45,1.08,4.6,4.6,0,0,0,3.43.12,8.74,8.74,0,0,0,1.62-.87,4.38,4.38,0,0,1-1.44,1.27,3.83,3.83,0,0,1-3.81-.13,2.88,2.88,0,0,1-1.24-1.46" transform="translate(-316.89 -105.39)"/>
        <path class="cd" d="M567.72,290a4,4,0,0,1-2.93-1.19,5,5,0,0,1-1.15-3.37.28.28,0,0,1,.3-.27.28.28,0,0,1,.27.3,4.54,4.54,0,0,0,1,3,3.39,3.39,0,0,0,2.51,1c3.17-.15,3.28-4.17,3.28-4.34a.29.29,0,0,1,.29-.28.29.29,0,0,1,.28.29c0,1.63-.87,4.75-3.84,4.89" transform="translate(-316.89 -105.39)"/>
        <g class="ca">
          <g class="ce">
            <path class="cc" d="M569,318.67s2,2.74,3,4.11a9.24,9.24,0,0,1-3-4.11" transform="translate(-316.89 -105.39)"/>
          </g>
        </g>
        <path class="bz" d="M564.76,282.85s1.1,1.62,2.55,1.28a3.26,3.26,0,0,0,2.05-1.77Z" transform="translate(-316.89 -105.39)"/>
        <path class="cf" d="M568.17,265.51s-8.57-2.62-9.65,7.64c-.13,1.69-1.52,7.53-2.16,8.29s3,3.4,8.09,1.23c4.23,0,5.81-.76,5.81-.76s1.59,1.76,8.07-.27c-1.52-2.54-2.79-4.51-3.3-7.94s-1.78-9.84-6.86-8.19" transform="translate(-316.89 -105.39)"/>
        <path class="y" d="M561.32,276.75s.44,6.84,5.84,6.84c2.73-.38,5.84-5.21,5-9.26s-2-4.43-2-4.43l-5.4.44-4.83,2Z" transform="translate(-316.89 -105.39)"/>
        <path class="cf" d="M560.37,278a4.84,4.84,0,0,0,1.91-2.29c.44-1.4,2.92-1,4.7-1.41s3.3-1.45,3.68-2.72a7.06,7.06,0,0,0,1.64,3.21c.51.6,1-3.21,1-3.21l-2.35-3-3.37-.33h-2.79l-1.52.46a17.51,17.51,0,0,0-2.67,1.14,12.59,12.59,0,0,0-1.65,1.4Z" transform="translate(-316.89 -105.39)"/>
        <path class="bw" d="M558.85,336.46a.81.81,0,1,1,.81-.81.81.81,0,0,1-.81.81m0-1.33a.52.52,0,1,0,.52.52.53.53,0,0,0-.52-.52" transform="translate(-316.89 -105.39)"/>
        <path class="bw" d="M551,336.46a.81.81,0,1,1,.81-.81.81.81,0,0,1-.81.81m0-1.33a.52.52,0,1,0,.52.52.53.53,0,0,0-.52-.52" transform="translate(-316.89 -105.39)"/>
        <path class="y" d="M591,296c.38-.76.15-2.6-.57-1.42a19.8,19.8,0,0,0-1.64,3.88c-.68.72-3.26,2.9-5.44,5.28.9,1.19,1.89,2.36,2.75,3.61,1.29-1.75,2.91-4.21,5.06-6.95,2-1.23,3.9-2.7,3.8-4.07a1.54,1.54,0,0,0-1.86-1.62A4.4,4.4,0,0,0,591,296" transform="translate(-316.89 -105.39)"/>
        <path class="cg" d="M590.55,295.45s-4.4-.87-5.16,7.24" transform="translate(-316.89 -105.39)"/>
        <path class="cg" d="M589.82,295.42s4.38-1.2,4.95,6.06" transform="translate(-316.89 -105.39)"/>
        <polygon class="az" points="284.06 197.63 286.89 219.28 261.76 219.28 264.24 197.63 284.06 197.63"/>
        <circle class="ch" cx="278.68" cy="200.26" r="0.67"/>
        <circle class="ch" cx="270.79" cy="200.26" r="0.67"/>
        <polygon class="ab" points="284.23 194.13 290.23 215.12 265.38 218.83 264.63 197.06 284.23 194.13"/>
        <circle class="ch" cx="596.19" cy="302.92" r="0.67" transform="translate(-355.18 -13.74) rotate(-8.52)"/>
        <circle class="ch" cx="588.39" cy="304.08" r="0.67" transform="translate(-355.42 -14.93) rotate(-8.51)"/>
        <path class="cg" d="M590.31,295.9s4.33-2.06,5.89,7" transform="translate(-316.89 -105.39)"/>
        <path class="cg" d="M588.39,304.08s-1-7.67,2.16-8.31" transform="translate(-316.89 -105.39)"/>
        <path class="ab" d="M589.37,297s.46-1,.72-1.71.89-1.83,1.11-.58a3.7,3.7,0,0,1-.18,1.48" transform="translate(-316.89 -105.39)"/>
        <g class="bu">
          <g class="ci">
            <polyline points="166.36 115.68 163.32 117.3 164.84 113.35"/>
            <path d="M492.68,216a6.42,6.42,0,1,1-6.42-6.42,6.42,6.42,0,0,1,6.42,6.42" transform="translate(-316.89 -105.39)"/>
            <path d="M489,214.27a1.57,1.57,0,0,0-2.22,0l-.4.41-.41-.41a1.57,1.57,0,1,0-2.2,2.24l1.53,1.5h0a1.57,1.57,0,0,0,2.22,0l1.5-1.53a1.57,1.57,0,0,0,0-2.22" transform="translate(-316.89 -105.39)"/>
          </g>
        </g>
        <polyline class="bd" points="168.23 114.68 165.19 116.3 166.71 112.35"/>
        <path class="bd" d="M494.55,215a6.42,6.42,0,1,1-6.42-6.42,6.42,6.42,0,0,1,6.42,6.42" transform="translate(-316.89 -105.39)"/>
        <path class="ar" d="M490.84,213.27a1.57,1.57,0,0,0-2.22,0l-.4.41-.41-.41a1.57,1.57,0,1,0-2.2,2.24l1.53,1.5h0a1.57,1.57,0,0,0,2.22,0l1.5-1.53a1.57,1.57,0,0,0,0-2.22" transform="translate(-316.89 -105.39)"/>
        <g class="bu">
          <g class="cj">
            <path d="M455.43,267.35a1.5,1.5,0,0,1-.09-1.08c.4-1.38,1.12-3.3,1.84-5.1a4.3,4.3,0,0,0,.45.08c.82,3.52,1.69,8.45,1.39,10.93h0s-.27.35-.67.94c-1.09-2.12-2.17-4.24-2.91-5.77" transform="translate(-316.89 -105.39)"/>
          </g>
        </g>
        <path class="ck" d="M459,324.72v0c-1.91,9.06-1,21.52-1.43,28.34.1,0,2.6.34,2.6.34s5.91-28.76,7-34.27a7.88,7.88,0,0,0,.14-1.07c.26-4.15-3.48-4.36-5.58-.93a14.6,14.6,0,0,0-1,1.85c-.12.27-.23.54-.34.84h0a27.23,27.23,0,0,0-.93,2.89l0,.11c-.09.29-.16.58-.23.88v.07c-.07.3-.14.61-.2.93" transform="translate(-316.89 -105.39)"/>
        <path class="ck" d="M470.21,292.19c-.07.75-.47,4.32-.95,8.53-.41,3.54-.86,7.53-1.21,10.69-.26,2.37-.45,4.26-.53,5.15a11.63,11.63,0,0,1-.21,1.53v0c-.9,4.14-3.76,4.38-5.5,3.42a3.54,3.54,0,0,1-.66-.45,2.22,2.22,0,0,1-.74-1.22h0c-.11-.85-.22-2-.32-3.39v0s0,0,0,0v0c-.21-2.69-.39-6.15-.55-9.52-.19-4.14-.31-8.13-.34-10.38,0-.13,0-.25,0-.37,0-6.9,6.31-11.32,10.25-9.18l.14.07.15.09c.45.3.6,1.33.61,2.51,0,.86,0,1.8-.1,2.58" transform="translate(-316.89 -105.39)"/>
        <path class="cl" d="M460.56,318.22l-.48-1.81s0,0,0,0a28.83,28.83,0,0,1-.6,6.31l0,.11c-.07.29-.14.59-.23.88v.07a5,5,0,0,0-.2.93v0c0,.82,1.74-2.82,2.14-3.67l.08-.17-.47-1.9Z" transform="translate(-316.89 -105.39)"/>
        <path class="cl" d="M470.31,289.61c0,.86,0,1.8-.1,2.58s-.47,4.32-.95,8.53c-.18-.92-.34-1.73-.46-2.39,0-.13-.42-1.87-.45-2-.56-3.18.58-4.56,2-6.74" transform="translate(-316.89 -105.39)"/>
        <path class="ck" d="M474.22,326.45v0C474,336,477,348.13,477.74,355c.1,0,2.4-.31,2.4-.31s.44-30.08.47-35.83a8.87,8.87,0,0,0-.06-1.09c-.47-4.19-3.87-3.47-5.18.46a17.13,17.13,0,0,0-.55,2.08c-.06.3-.12.6-.17.92h0a31.19,31.19,0,0,0-.34,3.11v.11c0,.31,0,.62-.06.93v.07c0,.32,0,.64,0,1" transform="translate(-316.89 -105.39)"/>
        <path class="ck" d="M476.19,322.58a2.49,2.49,0,0,1-.67-.29,1.9,1.9,0,0,1-.87-1h0c-.25-.82-.55-2-.87-3.31,0,0,0,0,0,0v0c-.64-2.62-1.4-6-2.11-9.32-.87-4.07-1.66-8-2.07-10.25,0-.12-.38-1.75-.41-1.87-1.22-6.93,4.19-11.45,8.12-10.13l.16.05c.79.32,1,3.1,1.19,5s1.51,21.35,1.85,24.87a14.14,14.14,0,0,1,.07,1.58c-.09,4.35-2.63,5.31-4.36,4.79" transform="translate(-316.89 -105.39)"/>
        <path class="cl" d="M474.51,319.6l-.74-1.68s0,0,0,0a32.32,32.32,0,0,1,.53,6.42v.11c0,.3,0,.62-.06.93v.07a5.43,5.43,0,0,0,0,1v0c.13.82,1.09-3.24,1.3-4.18l0-.19-.75-1.77Z" transform="translate(-316.89 -105.39)"/>
        <path class="cm" d="M464.58,281.06s-.06-.19-2.36,1.71c-.38-.88-.64-2.65-2-4.07-2.06-2.07-3.82-3.93-7.25-9.87a3.38,3.38,0,0,1-.38-2.46c.81-3.52,3.16-11.71,3.16-11.71L457,255l4.42,1.15s-3,6.72-3.94,10.13a1.5,1.5,0,0,0,.09,1.08c2.14,4.39,7.05,13.71,7.05,13.71" transform="translate(-316.89 -105.39)"/>
        <path class="cn" d="M461.11,272.18s-5.09,6.46-4.57,13c.22,2.7,1.82,5.15,2.13,7.87a35.84,35.84,0,0,1,.24,4.6s2-.07,4.84-.31c3.47-.3,14.7-.21,15.57-.21a70.42,70.42,0,0,0-5.47-25.7,88.2,88.2,0,0,1-12.73.79" transform="translate(-316.89 -105.39)"/>
        <path class="co" d="M476.69,258.76A10.94,10.94,0,0,1,474,264a8.69,8.69,0,0,0-.52,3.11v0c-.08,1.83,0,3.81.41,4.23-2,1.77-9.37,3.21-12.73.79.35-3-1-9.56-1.89-12.91-.14-.51-.26-.95-.38-1.28-.84-2.54,7.73-11.07,7.73-11.07l4.39-2s4,1.44,5.33,2.73c-1,1.63-1.84,3,.21,8a6.22,6.22,0,0,1,.18,3.12" transform="translate(-316.89 -105.39)"/>
        <path class="ck" d="M475.65,229.67s4.9,14.54-7,13.55c-8.69-1-2.11-8.27-2.07-8.74s4.22-5.95,4.22-5.95Z" transform="translate(-316.89 -105.39)"/>
        <g class="cp">
          <g class="cq">
            <path class="aq" d="M473.84,271.38c-2,1.77-9.37,3.21-12.73.79.35-3-1-9.56-1.89-12.91l0-1.46,1.67,2.35a72,72,0,0,1,.86,11.24c0,1.31,9.06,1.79,12.1,0" transform="translate(-316.89 -105.39)"/>
          </g>
        </g>
        <g class="cp">
          <g class="cr">
            <path class="aq" d="M476.69,258.76A10.94,10.94,0,0,1,474,264a8.69,8.69,0,0,0-.52,3.11,7.76,7.76,0,0,0-.21-2.12,1.48,1.48,0,0,1,.57-1.59c2.18-1.63,2.15-5,2.15-5s.34.14.75.32" transform="translate(-316.89 -105.39)"/>
          </g>
        </g>
        <path class="cm" d="M502.9,256.27a2.78,2.78,0,0,1-2.7,2.91,4.24,4.24,0,0,0-.64.35c-1.43.87-4.78,3.16-8.14,5.3l-.2.13-.65.42c-3.29,2.07-6.43,3.87-7.58,3.93-2.11-.71-6.48-7.63-8.91-16.33a4.57,4.57,0,0,1,2.23-5.31,9.65,9.65,0,0,1,2,2.12c1.75,3,5.61,12.73,6,13.71,1.8-.83,7.06-4,12.31-6.23a3.55,3.55,0,0,0,2-1.7,16.85,16.85,0,0,1,2.18-3.4c.45-.46.91-.32,0,1.91l-.2.4s1.93.53,2.14,1.37a2.06,2.06,0,0,1,.08.42" transform="translate(-316.89 -105.39)"/>
        <path class="cs" d="M472,224.4s.88-.37,1-.39a3.19,3.19,0,0,1,2.12.08c1.71.74,2.56,3.26,2.17,5-.44,1.94-2.42,2.68-4.21,2.83a2.46,2.46,0,0,0-2,1.56c-.49,1.27.39,2.46.18,3.73-.15.89-.88,1.26-1.34,2a2,2,0,0,0,.1,2.37c1,1.39,1.74,3.49.55,5.07a2.53,2.53,0,0,0-.29,2.48c.36.94,1.3,1.49,1.79,2.37a5.42,5.42,0,0,1,.18,4.88,4.74,4.74,0,0,1-4,2.42,9.32,9.32,0,0,0-3.41.3c-.93.41-1.42,1.39-2.34,1.84-1.86.91-4.6.43-5.54-1.58-.56-1.2-2-1-3-1.34a4,4,0,0,1-2.6-2.84,4.72,4.72,0,0,1,.33-2.9,7.09,7.09,0,0,1,1-1.65,2.72,2.72,0,0,0,.91-1.83c-.08-1.11-.93-2-1.3-3a5.5,5.5,0,0,1-.37-1.9c0-2,1.39-3.44,3-4.38l.37-.2c2.11-1.32,3-2.07,2.82-5.67s.2-9.11,8.47-10.24c1.17-.26,4.18-.05,5.51,1" transform="translate(-316.89 -105.39)"/>
        <path class="ct" d="M465.12,278.47a11.43,11.43,0,0,0-1.86,4,6.76,6.76,0,0,0,.26,4.24,26.2,26.2,0,0,0,2.37,3.75,15.89,15.89,0,0,1,1,2.07,8.77,8.77,0,0,1,.6,2.18,10.66,10.66,0,0,0-.87-2.06,16.1,16.1,0,0,0-1.08-1.94,21.92,21.92,0,0,1-2.54-3.77,7,7,0,0,1-.15-4.59,9.29,9.29,0,0,1,2.32-3.88" transform="translate(-316.89 -105.39)"/>
        <path class="bx" d="M486.14,357.3c-2.08.37-4.43,0-5.34.15-.75.13-2.89.22-3.49.23s-.61-2.95.22-3.25a3.08,3.08,0,0,0,.54.13,5.72,5.72,0,0,0,2.46-.2,13.15,13.15,0,0,0,3.44,1.3,11.7,11.7,0,0,1,2.29.7c.78.36,1,.74-.13.95" transform="translate(-316.89 -105.39)"/>
        <path class="bx" d="M464.75,357.36c-2.09-.35-4.17-1.5-5.08-1.66-.75-.13-2.8-.77-3.36-1s.42-3,1.31-3a3.11,3.11,0,0,0,.46.3,5.7,5.7,0,0,0,2.39.64,13.1,13.1,0,0,0,2.8,2.39,11.69,11.69,0,0,1,1.92,1.43c.61.6.73,1-.44.84" transform="translate(-316.89 -105.39)"/>
        <path class="ar" d="M411.12,290.82s-2.49,11-5.05,14.43c-2.15,2.91-16.21,5.84-17.24,6.72-1.66,1.41-2.82-.47-4.63.22-.61.23-.36.54-1.17.6s-1.9-1.25.73-2.86c1.46-.58,3.88-.22,4-.29s13.43-6.52,14-7.76,3.14-12.48,3.14-12.48Z" transform="translate(-316.89 -105.39)"/>
        <path class="ax" d="M411.84,280.08a30.35,30.35,0,0,1,0,12,27.63,27.63,0,0,1-9.6-1.17l1.73-8.85" transform="translate(-316.89 -105.39)"/>
      </g>
    </g>
  </g>
</svg>
